Coordinates
version=1
nRows=19
nColumns=24
inDegrees=yes

Units are S.I. units (second, meters, Newtons, ...)
Angles are in degrees.

endheader
time	pelvis_tilt	pelvis_list	pelvis_rotation	pelvis_tx	pelvis_ty	pelvis_tz	hip_flexion_r	hip_adduction_r	hip_rotation_r	knee_angle_r	ankle_angle_r	subtalar_angle_r	mtp_angle_r	hip_flexion_l	hip_adduction_l	hip_rotation_l	knee_angle_l	ankle_angle_l	subtalar_angle_l	mtp_angle_l	lumbar_extension	lumbar_bending	lumbar_rotation
      1.06650000	      0.93502675	     -3.74115748	      3.54684995	      0.39665317	      1.03620379	      0.31999750	      6.87127573	     10.51286147	      0.07673139	    -13.53686448	      4.11853917	    -11.89750506	      7.22183557	     14.10627050	     -7.03358749	     -3.05259707	    -56.00879637	      6.53250564	      5.16958528	      3.84512046	     -7.19332080	      3.16034266	     -2.67351549
      1.07066667	      0.98457992	     -3.68929180	      3.37860507	      0.40125500	      1.03668454	      0.32055204	      6.37149014	     10.51094169	      0.25602181	    -13.24509048	      4.20604482	    -11.80361049	      7.18075296	     14.48948518	     -6.97863539	     -3.11771231	    -55.39608725	      6.95090742	      4.98152302	      3.78008278	     -7.28979130	      3.06012795	     -2.43381177
      1.07483333	      0.97075570	     -3.64080883	      3.21282307	      0.40585342	      1.03702652	      0.32110048	      5.95830864	     10.50338118	      0.39257919	    -12.98550716	      4.27397784	    -11.70923076	      7.16654768	     14.93854854	     -6.92225014	     -3.17689650	    -54.76310267	      7.38987981	      4.75796713	      3.75988433	     -7.29827213	      2.95718133	     -2.36937565
      1.07900000	      1.01624332	     -3.57606250	      3.04424425	      0.41044826	      1.03746361	      0.32164711	      5.46720049	     10.48230029	      0.57268548	    -12.70384953	      4.36681718	    -11.62128479	      7.12133342	     15.29598639	     -6.84611319	     -3.23099415	    -54.06068085	      7.73794356	      4.51070989	      3.68692761	     -7.38972171	      2.84166144	     -2.14862356
      1.08316667	      1.00420236	     -3.53404584	      2.88376091	      0.41503159	      1.03775150	      0.32218243	      5.05554160	     10.47782670	      0.71547385	    -12.44867557	      4.44150723	    -11.53192785	      7.10466725	     15.72156116	     -6.79344810	     -3.27689460	    -53.35521385	      8.13448672	      4.28125106	      3.66152327	     -7.40596344	      2.74182518	     -2.08385826
      1.08733333	      1.03073499	     -3.46210160	      2.71489299	      0.41960183	      1.03810688	      0.32271376	      4.59677319	     10.44285357	      0.89505886	    -12.18925480	      4.53692578	    -11.46485540	      7.06302250	     16.07371510	     -6.70050594	     -3.31591924	    -52.57304811	      8.42040687	      3.99406452	      3.59258206	     -7.48169251	      2.63181426	     -1.89612070
      1.09150000	      0.99225247	     -3.43297311	      2.58381978	      0.42419371	      1.03829022	      0.32320616	      4.21116708	     10.44647519	      1.02322179	    -11.92223737	      4.60631171	    -11.36767185	      7.05442205	     16.51212177	     -6.64763019	     -3.30882991	    -51.79794099	      8.74083457	      3.81974291	      3.57790674	     -7.43838247	      2.56564300	     -1.85814300
      1.09566667	      1.02843043	     -3.35665398	      2.40338465	      0.42874025	      1.03859547	      0.32374737	      3.75509217	     10.40392282	      1.20895586	    -11.68959828	      4.71622134	    -11.32484012	      7.01432182	     16.82589676	     -6.55153993	     -3.36045544	    -50.94450414	      8.98178901	      3.45413811	      3.50668827	     -7.54805381	      2.42529326	     -1.66791673
      1.09983333	      1.00813456	     -3.30972297	      2.25571675	      0.43330762	      1.03875595	      0.32424793	      3.35625804	     10.38792639	      1.36809211	    -11.43868080	      4.80300801	    -11.26998537	      6.96494827	     17.20868837	     -6.47608331	     -3.36310116	    -50.08224859	      9.19769450	      3.15890604	      3.42002967	     -7.55223210	      2.32341471	     -1.51261279
      1.10400000	      1.00351378	     -3.27035027	      2.11593656	      0.43788335	      1.03892382	      0.32472923	      2.93648225	     10.37730695	      1.52369393	    -11.17843837	      4.89178474	    -11.21470414	      6.90633416	     17.56121820	     -6.40726873	     -3.35410597	    -49.18235452	      9.37361007	      2.86637007	      3.31514464	     -7.56964102	      2.22638719	     -1.37579445
      1.10816667	      0.97626957	     -3.21774901	      1.96061091	      0.44243670	      1.03902901	      0.32521240	      2.56027261	     10.34966739	      1.68846657	    -10.96006074	      4.98751593	    -11.16230116	      6.86590711	     17.92094023	     -6.32093468	     -3.35169916	    -48.24647561	      9.55685905	      2.57189804	      3.23807407	     -7.58073045	      2.12453467	     -1.28917286
      1.11233333	      0.95532240	     -3.18154652	      1.82193541	      0.44699991	      1.03910319	      0.32566457	      2.17124931	     10.33747842	      1.84186014	    -10.72447634	      5.08110983	    -11.11535088	      6.82373767	     18.26751743	     -6.24604356	     -3.32246610	    -47.28318018	      9.67342116	      2.25421252	      3.15421328	     -7.58723970	      2.03919452	     -1.18492225
      1.11650000	      0.93758222	     -3.14888429	      1.68308493	      0.45155597	      1.03915671	      0.32610756	      1.78166912	     10.32742968	      2.00163413	    -10.49297716	      5.17611153	    -11.07461484	      6.77909260	     18.59833737	     -6.17401261	     -3.29115184	    -46.28700600	      9.74761344	      1.93180240	      3.06263863	     -7.59873835	      1.95820761	     -1.07602646
      1.12066667	      0.89900993	     -3.13317580	      1.55663491	      0.45612405	      1.03913297	      0.32651637	      1.41387131	     10.33196490	      2.13745517	    -10.25210265	      5.21337687	    -11.05803018	      6.50395590	     18.94814561	     -6.11101837	     -3.23249645	    -45.27669096	      9.81495484	      1.57756655	      2.53765393	     -7.56339544	      1.90720168	     -0.82732278
      1.12483333	      0.86334503	     -3.10156831	      1.41134284	      0.46067699	      1.03909619	      0.32695637	      1.05468477	     10.32086221	      2.32838235	    -10.05202103	      5.37358866	    -11.02258336	      6.47051794	     19.27296648	     -6.04242836	     -3.20434962	    -44.22056838	      9.80198090	      1.29708235	      2.45477357	     -7.56998977	      1.82130436	     -0.83424755
      1.12900000	      0.83669006	     -3.08086780	      1.28363267	      0.46524302	      1.03903641	      0.32733786	      0.68407164	     10.31578790	      2.47813001	     -9.83832947	      5.47266109	    -10.98408328	      6.43062760	     19.58040564	     -5.97108182	     -3.13905795	    -43.14133891	      9.75968289	      0.93803336	      2.35840245	     -7.57050667	      1.76164291	     -0.75673069
      1.13316667	      0.81513916	     -3.06951660	      1.16562058	      0.46982270	      1.03895521	      0.32768832	      0.30577201	     10.31768745	      2.61456800	     -9.61893834	      5.57336874	    -10.95406837	      6.37257187	     19.87418510	     -5.90695426	     -3.06508300	    -42.03939464	      9.66553631	      0.57361968	      2.21942648	     -7.57012909	      1.72206943	     -0.63875399
      1.13733333	      0.75975874	     -3.06119210	      1.03539727	      0.47439412	      1.03877416	      0.32805679	     -0.02287924	     10.32247809	      2.76925251	     -9.42898624	      5.68424964	    -10.92286618	      6.30985005	     20.19495064	     -5.84872783	     -2.99527400	    -40.91983601	      9.56205954	      0.22174247	      2.06426321	     -7.53676913	      1.67690315	     -0.53726563
      1.14150000	      0.72228663	     -3.05880916	      0.90382025	      0.47897574	      1.03860087	      0.32840066	     -0.37088741	     10.33008906	      2.92430605	     -9.24153548	      5.80000128	    -10.88777354	      6.24858153	     20.48308365	     -5.79887325	     -2.93368195	    -39.77529671	      9.43118657	     -0.12192878	      1.90734234	     -7.52567997	      1.64335166	     -0.44086954
